<?xml version="1.0" standalone="yes"?>
<svg xmlns="http://www.w3.org/2000/svg" width="150" height="150">
<path style="fill:#85c1a6; stroke:none;" d="M0 0C0 25.6838 -0.0659797 51.3712 0.741512 77C1.00861 85.4773 -2.48903 100.2 7 104C-0.46534 94.2943 2 81.8422 2 70C2 47.3706 1 24.6949 1 2L108 2L108 28C109.774 23.7725 111.4 4.05807 107.397 1.04245C103.021 -2.25328 84.8509 1 79 1C53.0032 1 25.7852 3.25877 0 0z"/>
<path style="fill:#afd4c4; stroke:none;" d="M3 0L3 1L103 1L72 0L3 0M108 0L109 32L110 32L110 1L112 1L113 35L114 35L113 0L108 0z"/>
<path style="fill:#85c1a6; stroke:none;" d="M113 0C117.951 5.66606 140.495 2 148 2L148 68L147.397 95.9066L132 110L140 107L141 106L147 101L150 99L149 65L149 0L113 0z"/>
<path style="fill:#afd4c4; stroke:none;" d="M115 0L115 1L143 1L115 0M145 0L145 1L148 1L145 0z"/>
<path style="fill:#010101; stroke:none;" d="M149 0L150 1L149 0z"/>
<path style="fill:#fdfefe; stroke:none;" d="M110 1L110 32L75 19.3951L54 26.9892L5 48C9.95253 51.2888 19.6672 52.2676 22.9722 57.3935C25.4161 61.1838 24 68.6639 24 73C24 86.8056 27.0293 104.441 21 117L26 118L26 58L72 76L72 77L37 68C37 73.4912 34.9983 83.8683 38.0278 88.6096C40.8222 92.9831 49.3502 94.8131 54 96.3287C70.6362 101.751 93.7696 103.326 108.852 92.6481C117.494 86.5297 107.895 70.3547 113.028 62.3935C117.881 54.8658 136.234 52.4199 144 48C135.611 42.3566 120.089 41.3499 113.603 33.5818C108.574 27.5571 112 8.65434 112 1L110 1z"/>
<path style="fill:#afd4c4; stroke:none;" d="M149 1L149 98L150 98L150 31L149 1z"/>
<path style="fill:#48af7f; stroke:none;" d="M1 2C1 24.018 2 46.0542 2 68C2 76.8207 -0.797526 90.5934 2.6034 98.8264C5.13263 104.949 16.9947 111.086 23 113L23 73L21.9722 57.4985L3 49L3 47L52 26.7191L75 18.3951L108 31L108 2L1 2M113 2C113 9.51607 109.84 26.2492 114.028 32.5818C118.707 39.6589 138.183 43.968 146 47L146 49C138.666 51.481 116.742 56.6902 113.603 64.1327C109.978 72.7282 118.042 87.7259 108.941 93.7863C92.6874 104.61 71.4893 102.777 54 96.9992C48.9784 95.3402 40.0595 93.3622 37.0278 88.6096C33.7713 83.5045 36 71.9305 36 66L58 72L58 71L27 59L27 98C27 103.29 25.6108 110.939 27.6034 115.907C29.4794 120.584 36.0812 123.182 40 125.884C50.758 133.302 64.8294 147.426 78 149L77 146C95.2519 139.08 112.913 122.568 129 111.502C134.06 108.02 144.97 102.599 147.397 96.8156C150.542 89.3187 148 76.0982 148 68L148 2L113 2z"/>
<path style="fill:#85c1a6; stroke:none;" d="M72 18L72 19L78 19L72 18M69.6667 19.3333L70.3333 19.6667L69.6667 19.3333z"/>
<path style="fill:#afd4c4; stroke:none;" d="M71.6667 19.3333L72.3333 19.6667L71.6667 19.3333M77 19L77 20L81 21L81 20L77 19z"/>
<path style="fill:#85c1a6; stroke:none;" d="M79 19L80 20L79 19M67 20L68 21L67 20z"/>
<path style="fill:#afd4c4; stroke:none;" d="M68.6667 20.3333L69.3333 20.6667L68.6667 20.3333z"/>
<path style="fill:#85c1a6; stroke:none;" d="M81 20L81 21L85 22L85 21L81 20M64.6667 21.3333L65.3333 21.6667L64.6667 21.3333z"/>
<path style="fill:#afd4c4; stroke:none;" d="M66.6667 21.3333L67.3333 21.6667L66.6667 21.3333M82 21L83 22L82 21z"/>
<path style="fill:#85c1a6; stroke:none;" d="M62 22L63 23L62 22z"/>
<path style="fill:#afd4c4; stroke:none;" d="M63.6667 22.3333L64.3333 22.6667L63.6667 22.3333M84 22L84 23L88 24L88 23L84 22z"/>
<path style="fill:#85c1a6; stroke:none;" d="M86.6667 22.3333L87.3333 22.6667L86.6667 22.3333M57 24L57 25L61 24L57 24z"/>
<path style="fill:#afd4c4; stroke:none;" d="M61.6667 23.3333L62.3333 23.6667L61.6667 23.3333z"/>
<path style="fill:#85c1a6; stroke:none;" d="M88.6667 23.3333L89.3333 23.6667L88.6667 23.3333z"/>
<path style="fill:#afd4c4; stroke:none;" d="M59 24L60 25L59 24M89 24L89 25L93 26L93 25L89 24z"/>
<path style="fill:#85c1a6; stroke:none;" d="M91 24L92 25L91 24M50 27L50 28L56 26L50 27z"/>
<path style="fill:#afd4c4; stroke:none;" d="M56.6667 25.3333L57.3333 25.6667L56.6667 25.3333z"/>
<path style="fill:#85c1a6; stroke:none;" d="M93 25L93 26L97 27L97 26L93 25z"/>
<path style="fill:#afd4c4; stroke:none;" d="M54.6667 26.3333L55.3333 26.6667L54.6667 26.3333M94 26L95 27L94 26M52 27L53 28L52 27M96 27L96 28L100 29L100 28L96 27z"/>
<path style="fill:#85c1a6; stroke:none;" d="M98 27L99 28L98 27M47.6667 28.3333L48.3333 28.6667L47.6667 28.3333z"/>
<path style="fill:#afd4c4; stroke:none;" d="M49.6667 28.3333L50.3333 28.6667L49.6667 28.3333z"/>
<path style="fill:#85c1a6; stroke:none;" d="M100.667 28.3333L101.333 28.6667L100.667 28.3333M45 29L46 30L45 29z"/>
<path style="fill:#afd4c4; stroke:none;" d="M46.6667 29.3333L47.3333 29.6667L46.6667 29.3333M101 29L101 30L105 31L105 30L101 29z"/>
<path style="fill:#85c1a6; stroke:none;" d="M103 29L104 30L103 29M40 31L40 32L44 31L40 31z"/>
<path style="fill:#afd4c4; stroke:none;" d="M44.6667 30.3333L45.3333 30.6667L44.6667 30.3333z"/>
<path style="fill:#85c1a6; stroke:none;" d="M105 30L105 31L109 32L109 31L109 30L105 30z"/>
<path style="fill:#afd4c4; stroke:none;" d="M42 31L43 32L42 31M106 31L107 32L106 31z"/>
<path style="fill:#85c1a6; stroke:none;" d="M35 33L35 34L39 33L35 33z"/>
<path style="fill:#afd4c4; stroke:none;" d="M39.6667 32.3333L40.3333 32.6667L39.6667 32.3333M37.6667 33.3333L38.3333 33.6667L37.6667 33.3333z"/>
<path style="fill:#85c1a6; stroke:none;" d="M113 33L114 34L113 33M33 34L34 35L33 34z"/>
<path style="fill:#afd4c4; stroke:none;" d="M34.6667 34.3333L35.3333 34.6667L34.6667 34.3333z"/>
<path style="fill:#85c1a6; stroke:none;" d="M114.667 34.3333L115.333 34.6667L114.667 34.3333M28 36L28 37L32 36L28 36z"/>
<path style="fill:#afd4c4; stroke:none;" d="M32.6667 35.3333L33.3333 35.6667L32.6667 35.3333M115.667 35.3333L116.333 35.6667L115.667 35.3333z"/>
<path style="fill:#85c1a6; stroke:none;" d="M117 35L117 36L121 37L121 36L117 35z"/>
<path style="fill:#afd4c4; stroke:none;" d="M30 36L31 37L30 36M118 36L119 37L118 36z"/>
<path style="fill:#85c1a6; stroke:none;" d="M26 37L27 38L26 37z"/>
<path style="fill:#afd4c4; stroke:none;" d="M27.6667 37.3333L28.3333 37.6667L27.6667 37.3333M120 37L120 38L124 39L124 38L120 37z"/>
<path style="fill:#85c1a6; stroke:none;" d="M122 37L123 38L122 37M24 38L25 39L24 38z"/>
<path style="fill:#afd4c4; stroke:none;" d="M25 38L26 39L25 38z"/>
<path style="fill:#85c1a6; stroke:none;" d="M124 38L124 39L128 40L128 39L124 38M21.6667 39.3333L22.3333 39.6667L21.6667 39.3333z"/>
<path style="fill:#afd4c4; stroke:none;" d="M23.6667 39.3333L24.3333 39.6667L23.6667 39.3333M125 39L126 40L125 39z"/>
<path style="fill:#85c1a6; stroke:none;" d="M19 40L20 41L19 40z"/>
<path style="fill:#afd4c4; stroke:none;" d="M20.6667 40.3333L21.3333 40.6667L20.6667 40.3333M127 40L127 41L131 42L131 41L127 40z"/>
<path style="fill:#85c1a6; stroke:none;" d="M129.667 40.3333L130.333 40.6667L129.667 40.3333M17 41L18 42L17 41z"/>
<path style="fill:#afd4c4; stroke:none;" d="M18.6667 41.3333L19.3333 41.6667L18.6667 41.3333z"/>
<path style="fill:#85c1a6; stroke:none;" d="M131.667 41.3333L132.333 41.6667L131.667 41.3333M15 42L16 43L15 42z"/>
<path style="fill:#afd4c4; stroke:none;" d="M16 42L17 43L16 42M132.667 42.3333L133.333 42.6667L132.667 42.3333z"/>
<path style="fill:#85c1a6; stroke:none;" d="M134 42L135 43L134 42M12 43L13 44L12 43z"/>
<path style="fill:#afd4c4; stroke:none;" d="M13.6667 43.3333L14.3333 43.6667L13.6667 43.3333M135 43L136 44L135 43z"/>
<path style="fill:#85c1a6; stroke:none;" d="M136 43L136 44L140 45L140 44L136 43M9.66667 44.3333L10.3333 44.6667L9.66667 44.3333z"/>
<path style="fill:#afd4c4; stroke:none;" d="M11 44L12 45L11 44M137 44L138 45L137 44z"/>
<path style="fill:#85c1a6; stroke:none;" d="M7 45L8 46L7 45z"/>
<path style="fill:#afd4c4; stroke:none;" d="M8.66667 45.3333L9.33333 45.6667L8.66667 45.3333M139 45L139 46L143 47L143 46L139 45z"/>
<path style="fill:#85c1a6; stroke:none;" d="M141.667 45.3333L142.333 45.6667L141.667 45.3333M5 46L6 47L5 46z"/>
<path style="fill:#afd4c4; stroke:none;" d="M6.66667 46.3333L7.33333 46.6667L6.66667 46.3333z"/>
<path style="fill:#85c1a6; stroke:none;" d="M143 46L143 47L143 49L143 50L146 49L146 47L143 46M3.33333 47.6667L3.66667 48.3333L3.33333 47.6667z"/>
<path style="fill:#afd4c4; stroke:none;" d="M4.33333 47.6667L4.66667 48.3333L4.33333 47.6667M144 47L143 49L145 49L144 47z"/>
<path style="fill:#85c1a6; stroke:none;" d="M5 49L6 50L5 49z"/>
<path style="fill:#afd4c4; stroke:none;" d="M6 49L6 50L10 51L10 50L6 49M139 50L139 51L143 50L139 50z"/>
<path style="fill:#85c1a6; stroke:none;" d="M7 50L8 51L7 50M141 50L142 51L141 50M10 51L11 52L10 51z"/>
<path style="fill:#afd4c4; stroke:none;" d="M11 51L11 52L15 53L15 52L11 51M134 52L134 53L138 52L134 52z"/>
<path style="fill:#85c1a6; stroke:none;" d="M138.667 51.3333L139.333 51.6667L138.667 51.3333M12 52L13 53L12 52M136 52L137 53L136 52M15 53L16 54L15 53z"/>
<path style="fill:#afd4c4; stroke:none;" d="M16 53L17 54L16 53M129 54L129 55L133 54L129 54z"/>
<path style="fill:#85c1a6; stroke:none;" d="M133.667 53.3333L134.333 53.6667L133.667 53.3333M17 54L18 55L17 54z"/>
<path style="fill:#afd4c4; stroke:none;" d="M18.6667 54.3333L19.3333 54.6667L18.6667 54.3333z"/>
<path style="fill:#85c1a6; stroke:none;" d="M131 54L132 55L131 54M19.6667 55.3333L20.3333 55.6667L19.6667 55.3333z"/>
<path style="fill:#afd4c4; stroke:none;" d="M21 55L22 56L21 55M124 56L124 57L128 56L124 56z"/>
<path style="fill:#85c1a6; stroke:none;" d="M128.667 55.3333L129.333 55.6667L128.667 55.3333M22 56L23 57L22 56z"/>
<path style="fill:#afd4c4; stroke:none;" d="M23 56L23 114L20 113C24.6246 117.885 24 104.218 24 102C24 89.0087 28.0067 67.9317 23 56z"/>
<path style="fill:#85c1a6; stroke:none;" d="M126.667 56.3333L127.333 56.6667L126.667 56.3333z"/>
<path style="fill:#afd4c4; stroke:none;" d="M119 58L119 59L123 58L119 58z"/>
<path style="fill:#85c1a6; stroke:none;" d="M123.667 57.3333L124.333 57.6667L123.667 57.3333z"/>
<path style="fill:#afd4c4; stroke:none;" d="M26 58L27 59L26 58z"/>
<path style="fill:#85c1a6; stroke:none;" d="M27 58L28 59L27 58z"/>
<path style="fill:#afd4c4; stroke:none;" d="M28 58L29 59L28 58z"/>
<path style="fill:#85c1a6; stroke:none;" d="M121 58L122 59L121 58M26 59L26 101C26 107.998 24.8461 115.028 29 121L40 126L40 125L29 120C23.111 101.127 33.4736 76.8106 26 59M29 59L30 60L29 59z"/>
<path style="fill:#afd4c4; stroke:none;" d="M30.6667 59.3333L31.3333 59.6667L30.6667 59.3333M111 92L112 92C114.757 82.6736 108.304 65.44 118 60C108.231 58.3857 112.532 85.5667 111 92z"/>
<path style="fill:#85c1a6; stroke:none;" d="M118.667 59.3333L119.333 59.6667L118.667 59.3333M31.6667 60.3333L32.3333 60.6667L31.6667 60.3333z"/>
<path style="fill:#afd4c4; stroke:none;" d="M33 60L34 61L33 60z"/>
<path style="fill:#85c1a6; stroke:none;" d="M116.667 60.3333L117.333 60.6667L116.667 60.3333M34 61L35 62L34 61z"/>
<path style="fill:#afd4c4; stroke:none;" d="M35 61L35 62L39 63L39 62L35 61z"/>
<path style="fill:#85c1a6; stroke:none;" d="M114 61L115 62L114 61M36 62L37 63L36 62M113 62L114 63L113 62M39 63L40 64L39 63z"/>
<path style="fill:#afd4c4; stroke:none;" d="M40 63L41 64L40 63z"/>
<path style="fill:#85c1a6; stroke:none;" d="M41 64L42 65L41 64z"/>
<path style="fill:#afd4c4; stroke:none;" d="M42.6667 64.3333L43.3333 64.6667L42.6667 64.3333z"/>
<path style="fill:#85c1a6; stroke:none;" d="M44 65L45 66L44 65z"/>
<path style="fill:#afd4c4; stroke:none;" d="M45 65L46 66L45 65z"/>
<path style="fill:#85c1a6; stroke:none;" d="M36.6667 66.3333L37.3333 66.6667L36.6667 66.3333M46 66L47 67L46 66z"/>
<path style="fill:#afd4c4; stroke:none;" d="M47 66L47 67L51 68L51 67L47 66M36 67L37 90L38 90C36.6559 84.3544 34.5479 71.5346 40 68L36 67z"/>
<path style="fill:#85c1a6; stroke:none;" d="M40 67L41 68L40 67M48 67L49 68L48 67z"/>
<path style="fill:#afd4c4; stroke:none;" d="M41.6667 68.3333L42.3333 68.6667L41.6667 68.3333z"/>
<path style="fill:#85c1a6; stroke:none;" d="M43.6667 68.3333L44.3333 68.6667L43.6667 68.3333M51 68L52 69L51 68z"/>
<path style="fill:#afd4c4; stroke:none;" d="M52 68L53 69L52 68M45 69L46 70L45 69z"/>
<path style="fill:#85c1a6; stroke:none;" d="M46.6667 69.3333L47.3333 69.6667L46.6667 69.3333M53 69L54 70L53 69z"/>
<path style="fill:#afd4c4; stroke:none;" d="M54.6667 69.3333L55.3333 69.6667L54.6667 69.3333M48.6667 70.3333L49.3333 70.6667L48.6667 70.3333z"/>
<path style="fill:#85c1a6; stroke:none;" d="M50.6667 70.3333L51.3333 70.6667L50.6667 70.3333M56 70L57 71L56 70z"/>
<path style="fill:#afd4c4; stroke:none;" d="M57 70L58 71L57 70M51.6667 71.3333L52.3333 71.6667L51.6667 71.3333z"/>
<path style="fill:#85c1a6; stroke:none;" d="M53.6667 71.3333L54.3333 71.6667L53.6667 71.3333M57 72L66 75L57 72z"/>
<path style="fill:#afd4c4; stroke:none;" d="M59.6667 71.3333L60.3333 71.6667L59.6667 71.3333M54 72L54 73L57 73L54 72M62 72L63 73L62 72M58.6667 73.3333L59.3333 73.6667L58.6667 73.3333M64.6667 73.3333L65.3333 73.6667L64.6667 73.3333M0 74L0 81L1 81L0 74M62.6667 74.3333L63.3333 74.6667L62.6667 74.3333M65 75L72 77L65 75M0 84L0 100L1 100L0 84z"/>
<path style="fill:#85c1a6; stroke:none;" d="M36 89L37 90L36 89M38 90L39 91L38 90z"/>
<path style="fill:#afd4c4; stroke:none;" d="M39 90L40 91L39 90z"/>
<path style="fill:#85c1a6; stroke:none;" d="M40 91L41 92L40 91z"/>
<path style="fill:#afd4c4; stroke:none;" d="M41 91L42 92L41 91z"/>
<path style="fill:#85c1a6; stroke:none;" d="M112 91L113 92L112 91M42 92L43 93L42 92z"/>
<path style="fill:#afd4c4; stroke:none;" d="M43 92L44 93L43 92M109 92L103 95L103 96L110 93L109 92z"/>
<path style="fill:#85c1a6; stroke:none;" d="M110.667 92.3333L111.333 92.6667L110.667 92.3333M44 93L45 94L44 93z"/>
<path style="fill:#afd4c4; stroke:none;" d="M45.6667 93.3333L46.3333 93.6667L45.6667 93.3333z"/>
<path style="fill:#85c1a6; stroke:none;" d="M109 93L110 94L109 93M46.6667 94.3333L47.3333 94.6667L46.6667 94.3333z"/>
<path style="fill:#afd4c4; stroke:none;" d="M48 94L49 95L48 94z"/>
<path style="fill:#85c1a6; stroke:none;" d="M107.667 94.3333L108.333 94.6667L107.667 94.3333M49 95L50 96L49 95z"/>
<path style="fill:#afd4c4; stroke:none;" d="M50.6667 95.3333L51.3333 95.6667L50.6667 95.3333z"/>
<path style="fill:#85c1a6; stroke:none;" d="M105 95L106 96L105 95M52 96L53 97L52 96z"/>
<path style="fill:#afd4c4; stroke:none;" d="M53.6667 96.3333L54.3333 96.6667L53.6667 96.3333M101 96L102 97L101 96z"/>
<path style="fill:#85c1a6; stroke:none;" d="M102.667 96.3333L103.333 96.6667L102.667 96.3333M55 97L56 98L55 97z"/>
<path style="fill:#afd4c4; stroke:none;" d="M56.6667 97.3333L57.3333 97.6667L56.6667 97.3333M98.6667 97.3333L99.3333 97.6667L98.6667 97.3333z"/>
<path style="fill:#85c1a6; stroke:none;" d="M100 97L101 98L100 97M58.6667 98.3333L59.3333 98.6667L58.6667 98.3333z"/>
<path style="fill:#afd4c4; stroke:none;" d="M60 98L60 99L63 99L60 98M94 98L94 99L97 99L94 98z"/>
<path style="fill:#85c1a6; stroke:none;" d="M97.6667 98.3333L98.3333 98.6667L97.6667 98.3333M62.6667 99.3333L63.3333 99.6667L62.6667 99.3333z"/>
<path style="fill:#afd4c4; stroke:none;" d="M64 99L64 100L68 100L64 99M90 99L90 100L93 100L90 99z"/>
<path style="fill:#85c1a6; stroke:none;" d="M93.6667 99.3333L94.3333 99.6667L93.6667 99.3333z"/>
<path style="fill:#afd4c4; stroke:none;" d="M147 99L147 101L149 99L147 99z"/>
<path style="fill:#010101; stroke:none;" d="M149 99C127.117 116.366 100.996 136.565 76 149L76 150L150 150C150 135.689 154.508 112.127 149 99M0 100L0 150L72 150L72 149L0 100z"/>
<path style="fill:#85c1a6; stroke:none;" d="M67 100L67 101L70 101L67 100z"/>
<path style="fill:#afd4c4; stroke:none;" d="M70 100L70 101L87 101L70 100z"/>
<path style="fill:#85c1a6; stroke:none;" d="M87 100L87 101L91 101L87 100z"/>
<path style="fill:#afd4c4; stroke:none;" d="M145 100L140 105L145 100M1 101L2 102L1 101z"/>
<path style="fill:#85c1a6; stroke:none;" d="M72 101L72 102L75 102L72 101M83.6667 101.333L84.3333 101.667L83.6667 101.333z"/>
<path style="fill:#48af7f; stroke:none;" d="M3 102L4 103L3 102z"/>
<path style="fill:#85c1a6; stroke:none;" d="M143 103L144 104L143 103z"/>
<path style="fill:#afd4c4; stroke:none;" d="M6 104L9 106L6 104z"/>
<path style="fill:#85c1a6; stroke:none;" d="M8 104L9 105L8 104M6 105L7 106L6 105M8 106L8 107L12 107L8 106z"/>
<path style="fill:#afd4c4; stroke:none;" d="M139 105L140 106L139 105M138 106L139 107L138 106M10 107L10 108L18 113L10 107M131 112L137 107L131 112z"/>
<path style="fill:#fdfefe; stroke:none;" d="M12 108L13 109L12 108z"/>
<path style="fill:#85c1a6; stroke:none;" d="M14 108L15 109L14 108M13 109L14 110L13 109M15 109L16 110L15 109M14 110L15 111L14 110M16.6667 110.333L17.3333 110.667L16.6667 110.333M130 110L126 114L130 110M18 111L21 113L21 112L18 111z"/>
<path style="fill:#afd4c4; stroke:none;" d="M129 112L130 113L129 112z"/>
<path style="fill:#fdfefe; stroke:none;" d="M19 113L20 114L19 113z"/>
<path style="fill:#85c1a6; stroke:none;" d="M22 113L23 114L22 113z"/>
<path style="fill:#afd4c4; stroke:none;" d="M127.667 113.333L128.333 113.667L127.667 113.333z"/>
<path style="fill:#85c1a6; stroke:none;" d="M124 114L120 117L120 118L126 116L126 115L124 114z"/>
<path style="fill:#afd4c4; stroke:none;" d="M125.667 114.333L126.333 114.667L125.667 114.333M123.333 116.667L123.667 117.333L123.333 116.667M23 117L24 118L23 117M27 118L28 119L27 118z"/>
<path style="fill:#85c1a6; stroke:none;" d="M118 118L89 140L98 133L100 132L109 128C109.436 124.644 114.746 122.206 118 122L118 118z"/>
<path style="fill:#afd4c4; stroke:none;" d="M118 121L121 118L118 121M29 119L30 120L29 119M30 120L31 121L30 120M31 121L31 123L33 123L31 121M116 121L117 122L116 121M115 122L116 123L115 122M113 123L114 124L113 123M36 124L37 125L36 124M112 124L113 125L112 124M108 127L111 125L108 127z"/>
<path style="fill:#48af7f; stroke:none;" d="M111 125L112 126L111 125z"/>
<path style="fill:#afd4c4; stroke:none;" d="M38 126L38 127L42 129L38 126z"/>
<path style="fill:#85c1a6; stroke:none;" d="M41 127L43 130L41 127z"/>
<path style="fill:#afd4c4; stroke:none;" d="M43 129L43 130L46 131L43 129z"/>
<path style="fill:#85c1a6; stroke:none;" d="M45 129L46 130L45 129z"/>
<path style="fill:#48af7f; stroke:none;" d="M43 130L44 131L43 130z"/>
<path style="fill:#85c1a6; stroke:none;" d="M44 130L45 131L44 130M46 130L55 139L60 142L77 149L77 148L60 141L46 130z"/>
<path style="fill:#afd4c4; stroke:none;" d="M102 131L103 132L102 131M47 132L48 133L47 132M100 132L101 133L100 132M48 133L49 134L48 133M98 133L99 134L98 133M51 134L54 137L51 134M96 134L97 135L96 134M94 136L95 137L94 136M54.6667 137.333L55.3333 137.667L54.6667 137.333M56 138L57 139L56 138M57.6667 139.333L58.3333 139.667L57.6667 139.333z"/>
<path style="fill:#85c1a6; stroke:none;" d="M87 139L80 147L77 146L77 147L80 148L80 145L87 143L87 139z"/>
<path style="fill:#afd4c4; stroke:none;" d="M88 139L87 142L88 139M60 140L61 141L60 140z"/>
<path style="fill:#fdfefe; stroke:none;" d="M89 140L90 141L89 140z"/>
<path style="fill:#afd4c4; stroke:none;" d="M61 141L62 142L61 141M62 142L63 143L62 142M85 142L86 143L85 142M63 143L64 144L63 143M83 144L84 145L83 144M67 145L68 146L67 145M80.6667 145.333L81.3333 145.667L80.6667 145.333M78.6667 146.333L79.3333 146.667L78.6667 146.333M69 147L70 148L69 147M77 147L78 148L77 147z"/>
</svg>
